<?xml version="1.0" encoding="iso-8859-1"?>
<!-- Generator: Adobe Illustrator 18.0.0, SVG Export Plug-In . SVG Version: 6.00 Build 0)  -->
<!DOCTYPE svg PUBLIC "-//W3C//DTD SVG 1.1//EN" "http://www.w3.org/Graphics/SVG/1.1/DTD/svg11.dtd">
<svg xmlns="http://www.w3.org/2000/svg" xmlns:xlink="http://www.w3.org/1999/xlink" version="1.1" id="Capa_1" x="0px" y="0px" viewBox="0 0 448.981 448.981" style="enable-background:new 0 0 448.981 448.981;" xml:space="preserve" width="512px" height="512px">
<g>
	<path d="M414.896,22.552H251.076c-10.742,0-20.333,5-26.586,12.789c-6.252-7.789-15.844-12.789-26.586-12.789H34.085   C15.291,22.552,0,37.843,0,56.638v301.987h448.981V56.638C448.981,37.843,433.69,22.552,414.896,22.552z M273.322,37.552h12.554   v154.524h-12.554V37.552z M251.076,37.552h7.246v169.524h42.554V37.552h114.019c10.524,0,19.085,8.562,19.085,19.085v264.714   c-4.585-2.735-9.938-4.313-15.655-4.313H247.646c-5.716,0-11.069,1.577-15.655,4.313V56.638   C231.991,46.114,240.552,37.552,251.076,37.552z M15.536,343.625c1.796-6.666,7.894-11.586,15.119-11.586h170.681   c7.225,0,13.323,4.92,15.119,11.586H15.536z M201.335,317.039H30.655c-5.716,0-11.069,1.577-15.655,4.313V56.638   c0-10.524,8.562-19.085,19.085-19.085h163.819c10.524,0,19.086,8.562,19.086,19.085v264.714   C212.405,318.617,207.052,317.039,201.335,317.039z M232.527,343.625c1.796-6.666,7.894-11.586,15.119-11.586h170.681   c7.225,0,13.322,4.92,15.119,11.586H232.527z" fill="#e03c4c"/>
	<path d="M426.546,393.008l-62.488-16.022H18.071v49.443h345.987l62.488-16.022c3.974-1.019,6.75-4.596,6.75-8.699   C433.296,397.605,430.521,394.028,426.546,393.008z M355.612,411.428H64.07v-19.443h291.542V411.428z M33.071,391.986H49.07v19.443   H33.071V391.986z M370.612,409.263v-15.111l29.467,7.556L370.612,409.263z" fill="#e03c4c"/>
	<rect x="41.943" y="61.193" width="142.938" height="15" fill="#e03c4c"/>
	<rect x="41.943" y="94.775" width="142.938" height="15" fill="#e03c4c"/>
	<rect x="41.943" y="128.357" width="89.552" height="15" fill="#e03c4c"/>
</g>
<g>
</g>
<g>
</g>
<g>
</g>
<g>
</g>
<g>
</g>
<g>
</g>
<g>
</g>
<g>
</g>
<g>
</g>
<g>
</g>
<g>
</g>
<g>
</g>
<g>
</g>
<g>
</g>
<g>
</g>
</svg>
