<?xml version="1.0" encoding="utf-8"?>
<!-- Generator: Adobe Illustrator 16.0.0, SVG Export Plug-In . SVG Version: 6.00 Build 0)  -->
<!DOCTYPE svg PUBLIC "-//W3C//DTD SVG 1.1//EN" "http://www.w3.org/Graphics/SVG/1.1/DTD/svg11.dtd">
<svg version="1.1" id="Layer_1" xmlns="http://www.w3.org/2000/svg" xmlns:xlink="http://www.w3.org/1999/xlink" x="0px" y="0px"
	 width="595.3px" height="123.5px" viewBox="0 359.2 595.3 123.5" style="enable-background:new 0 359.2 595.3 123.5;"
	 xml:space="preserve">
<style type="text/css">
<![CDATA[
	.st0{fill:#E13D4D;}
	.st1{fill:#893B47;}
	.st2{fill:#C13E4C;}
	.st3{fill:#FFFFFF;}
]]>
</style>
<g>
	<polygon class="st2" points="121.6,456.9 1.5,456.9 61.5,408.1 1.5,359.2 121.6,359.2 	"/>
	<polygon class="st2" points="476.7,359.2 596.8,359.2 536.7,408.1 596.8,456.9 476.7,456.9 	"/>
	<rect x="88.2" y="384.6" class="st0" width="418.8" height="98.1"/>
	<polygon class="st1" points="89.7,384.6 121.6,384.6 121.6,359.2 	"/>
	<polygon class="st1" points="508.5,384.6 476.7,384.6 476.7,359.2 	"/>
</g>
<g>
	<path class="st3" d="M217.5,451.1h-0.4c-1.4,0-2.2-0.1-2.4-0.3c-0.2-0.2-0.4-0.8-0.4-1.9v-32.4H227v2.5h-9.6l0.2,1.2v9.6l-0.2,1.2
		h9v2.7h-9l0.2,1.2V451.1z"/>
	<path class="st3" d="M247,447.4c-1.1,2.7-3.4,4.1-6.7,4.1c-3.3,0-5.6-1.4-6.7-4.1c-1.2-2.7-1.7-7.3-1.7-13.8s0.6-11,1.7-13.6
		c1.2-2.6,3.4-4,6.7-4c3.3,0,5.6,1.3,6.7,4c1.1,2.6,1.7,7.2,1.7,13.6S248.1,444.6,247,447.4z M240.3,448.7c2,0,3.4-1.2,4.1-3.7
		c0.7-2.4,1.1-6.3,1.1-11.4c0-5-0.3-8.7-1-11c-0.8-2.6-2.2-3.9-4.2-3.9s-3.4,1.2-4.1,3.6c-0.7,2.4-1.1,5.7-1.1,10s0.1,7.4,0.4,9.5
		C236,446.4,237.6,448.7,240.3,448.7z"/>
	<path class="st3" d="M271.6,451.1c-1.6,0-2.6-0.1-3-0.3c-0.4-0.2-0.8-0.8-1.3-1.9l-6.5-14.2h-2.5l0.2,1.2v13h0
		c0,1.1-0.1,1.7-0.4,1.9c-0.2,0.2-1,0.3-2.4,0.3h-0.3v-34.7l5.5-0.5c3.3,0,5.5,0.6,6.4,1.9c0.4,0.5,0.7,1,0.9,1.3
		c0.2,0.4,0.3,1,0.4,1.8c0.1,1.1,0.2,2.3,0.2,3.9c0,1.5,0,2.7-0.1,3.5c0,0.8-0.2,1.6-0.4,2.4s-0.5,1.5-0.8,2c-0.8,1.1-2,1.7-3.7,1.9
		l8,16.5H271.6z M260.9,432c1.6,0,2.9-0.3,3.8-0.9c0.5-0.4,0.9-1.5,1-3.2c0-0.5,0-1.4,0-2.5s0-2,0-2.5c0-0.5-0.1-1.1-0.3-1.8
		c-0.1-0.7-0.4-1.1-0.7-1.4c-0.9-0.6-2.2-0.9-3.8-0.9h-2.4v12l-0.2,1.2H260.9z"/>
	<path class="st3" d="M298,451.1h-0.2c-1.4,0-2.2-0.1-2.4-0.3c-0.2-0.2-0.4-0.8-0.4-1.9l0.2-25.5h-0.5l-0.2,0.9l-4.8,10.2l-1.2,2.2
		h-1.9l-1.2-2.2l-4.9-10.3l-0.1-0.9h-0.5l0.1,25.5c0,1.1-0.1,1.7-0.3,1.9c-0.2,0.2-1,0.3-2.4,0.3H277v-34.6h0.2
		c1.4,0,2.2,0.1,2.5,0.3c0.3,0.2,0.7,0.8,1.3,1.9l6.1,13.2h0.7l7.2-15.4h0.2c1.4,0,2.2,0.1,2.4,0.3c0.2,0.2,0.3,0.8,0.3,1.9V451.1z"
		/>
	<path class="st3" d="M321,451.1c-1.4,0-2.3-0.1-2.6-0.3c-0.3-0.2-0.5-0.8-0.8-1.9l-2.1-9.6h-7.3l-2.6,11.8c-0.5,0-1,0-1.3,0
		c-0.4,0-0.7,0-1-0.1c-0.3-0.1-0.4-0.1-0.5-0.2s-0.1-0.3-0.1-0.5c0-0.2,2.5-11.5,7.6-33.7h3.1l7.8,34.6H321z M315.2,436.7l-0.4-1.2
		l-2.4-12.8h-0.9l-2.4,12.8l-0.4,1.2H315.2z"/>
	<path class="st3" d="M338.7,450.7l-3.7,0.8v4.9c0,1-0.1,1.6-0.4,1.8s-0.8,0.4-1.8,0.4h-1.7c-1.3,0-2-0.1-2.2-0.3
		c-0.2-0.2-0.3-0.8-0.3-1.9h4.2v-4.9c-1.4-0.1-2.6-0.6-3.8-1.4c-0.6-0.4-1.3-1.5-2.1-3.1c-0.8-1.7-1.2-5.1-1.2-10.2v-6
		c0-2.4,0.1-4.1,0.2-4.9c0.1-0.8,0.2-1.7,0.4-2.6c0.1-0.9,0.3-1.6,0.5-2.1c0.2-0.5,0.5-1,0.7-1.7c0.3-0.6,0.6-1.1,1-1.5
		c0.4-0.3,0.9-0.7,1.4-1c1-0.6,2.3-0.9,4-0.9l4.8,1c0,0.9-0.2,1.5-0.5,1.7c-0.4,0.2-0.7,0.3-1.1,0.3c-0.4,0-0.6,0-0.8,0l-2.4-0.3
		c-1.3,0-2.3,0.4-3,1.2c-0.4,0.4-0.7,0.8-1,1.2c-0.3,0.4-0.5,1-0.6,1.9s-0.3,1.5-0.4,2.1s-0.2,1.5-0.2,2.6s-0.1,2-0.1,2.7v6.1
		c0,2.4,0.1,4,0.2,4.9c0.1,0.9,0.3,1.7,0.4,2.5s0.3,1.5,0.6,1.9c0.3,0.4,0.6,0.8,1,1.3c0.6,0.8,1.6,1.2,3,1.2c0.7,0,1.6-0.1,2.6-0.2
		s1.8-0.2,2.2-0.3V450.7z"/>
	<path class="st3" d="M360,451.1c-1.4,0-2.3-0.1-2.6-0.3c-0.3-0.2-0.5-0.8-0.8-1.9l-2.1-9.6h-7.3l-2.6,11.8c-0.5,0-1,0-1.3,0
		c-0.4,0-0.7,0-1-0.1s-0.4-0.1-0.5-0.2c-0.1-0.1-0.1-0.3-0.1-0.5c0-0.2,2.5-11.5,7.6-33.7h3.1l7.8,34.6H360z M348.8,410.5l5.8,0.2
		c0.8,0,1.5-0.1,2.1-0.2l0.6,0.1v1c0,0.7-0.1,1.1-0.4,1.2c-0.2,0.1-1.1,0.2-2.5,0.2l-5.7-0.2c-0.8,0-1.5,0.1-2.1,0.2l-0.6-0.1v-1
		c0-0.7,0.1-1.2,0.4-1.3C346.6,410.5,347.4,410.5,348.8,410.5z M354.2,436.7l-0.4-1.2l-2.4-12.8h-0.9l-2.4,12.8l-0.4,1.2H354.2z"/>
	<path class="st3" d="M379.7,447.4c-1.1,2.7-3.4,4.1-6.7,4.1s-5.6-1.4-6.7-4.1c-1.2-2.7-1.7-7.3-1.7-13.8s0.6-11,1.7-13.6
		c1.2-2.6,3.4-4,6.7-4s5.6,1.3,6.7,4c1.1,2.6,1.7,7.2,1.7,13.6S380.9,444.6,379.7,447.4z M373,448.7c2,0,3.4-1.2,4.1-3.7
		c0.7-2.4,1.1-6.3,1.1-11.4c0-5-0.3-8.7-1-11c-0.8-2.6-2.2-3.9-4.2-3.9c-2,0-3.4,1.2-4.1,3.6c-0.7,2.4-1.1,5.7-1.1,10
		s0.1,7.4,0.4,9.5C368.8,446.4,370.4,448.7,373,448.7z"/>
</g>
</svg>
